<?xml version="1.0" encoding="UTF-8" standalone="no"?>
<svg
   xmlns:dc="http://purl.org/dc/elements/1.1/"
   xmlns:cc="http://creativecommons.org/ns#"
   xmlns:rdf="http://www.w3.org/1999/02/22-rdf-syntax-ns#"
   xmlns:svg="http://www.w3.org/2000/svg"
   xmlns="http://www.w3.org/2000/svg"
   xmlns:sodipodi="http://sodipodi.sourceforge.net/DTD/sodipodi-0.dtd"
   xmlns:inkscape="http://www.inkscape.org/namespaces/inkscape"
   sodipodi:docname="god_arm.svg"
   inkscape:version="1.0 (4035a4fb49, 2020-05-01)"
   id="svg8"
   version="1.1"
   viewBox="0 0 210 297"
   height="297mm"
   width="210mm">
  <defs
     id="defs2" />
  <sodipodi:namedview
     inkscape:window-maximized="1"
     inkscape:window-y="-8"
     inkscape:window-x="-8"
     inkscape:window-height="1002"
     inkscape:window-width="1920"
     showgrid="false"
     inkscape:document-rotation="0"
     inkscape:current-layer="layer1"
     inkscape:document-units="mm"
     inkscape:cy="560"
     inkscape:cx="-87.32745"
     inkscape:zoom="0.35"
     inkscape:pageshadow="2"
     inkscape:pageopacity="0.0"
     borderopacity="1.0"
     bordercolor="#666666"
     pagecolor="#ffffff"
     id="base" />
  <metadata
     id="metadata5">
    <rdf:RDF>
      <cc:Work
         rdf:about="">
        <dc:format>image/svg+xml</dc:format>
        <dc:type
           rdf:resource="http://purl.org/dc/dcmitype/StillImage" />
        <dc:title></dc:title>
      </cc:Work>
    </rdf:RDF>
  </metadata>
  <g
     id="layer1"
     inkscape:groupmode="layer"
     inkscape:label="Layer 1">
    <path
       id="path26"
       d="m -235.10119,158.75 9.82738,-30.2381 24.94643,-23.43452 63.5,-24.946429 10.58333,-0.755952 65.011908,22.678571 32.505952,0.75595 65.767856,-29.482139 33.261906,-12.095239 75.595238,-49.136904 78.58126,-44.563393 1.54969,157.200295 -81.64286,17.38691 -67.279758,8.31547 -88.446428,2.26786 -30.994047,6.04762 -26.458333,13.60714 h -49.892854 l -53.67262,10.58333 H -190.5 l -6.80357,-1.5119 -0.75595,-2.26786 V 174.625 l 5.29166,-10.58334 6.04762,-2.26785 21.92262,-8.31548 27.97024,-8.31547 -3.02381,-9.07143 -2.26786,-7.55953 -10.58333,-4.53571 -16.63095,-1.51191 -9.82738,3.02381 -9.07143,6.04762 -11.33928,10.58334 -8.31548,13.60714 -4.53572,7.55952 h -6.80357 z"
       style="fill:#a05a2c;stroke:#000000;stroke-width:0.264583px;stroke-linecap:butt;stroke-linejoin:miter;stroke-opacity:1" />
    <path
       transform="scale(0.26458333)"
       id="path28"
       d="m 1715.5297,808.57143 c 0,-1.57143 1.9286,-2.85714 4.2857,-2.85714 2.3572,0 4.2857,1.28571 4.2857,2.85714 0,1.57143 -1.9285,2.85714 -4.2857,2.85714 -2.3571,0 -4.2857,-1.28571 -4.2857,-2.85714 z"
       style="fill:#a05a2c;stroke-width:2.85714" />
  </g>
</svg>
