<?xml version="1.0" encoding="UTF-8" standalone="no"?>
<svg
   xmlns:dc="http://purl.org/dc/elements/1.1/"
   xmlns:cc="http://creativecommons.org/ns#"
   xmlns:rdf="http://www.w3.org/1999/02/22-rdf-syntax-ns#"
   xmlns:svg="http://www.w3.org/2000/svg"
   xmlns="http://www.w3.org/2000/svg"
   xmlns:sodipodi="http://sodipodi.sourceforge.net/DTD/sodipodi-0.dtd"
   xmlns:inkscape="http://www.inkscape.org/namespaces/inkscape"
   sodipodi:docname="pyramid_backdrop.svg"
   inkscape:version="1.0 (4035a4fb49, 2020-05-01)"
   id="svg961"
   version="1.1"
   viewBox="0 0 210 297"
   height="297mm"
   width="210mm">
  <defs
     id="defs955" />
  <sodipodi:namedview
     inkscape:window-maximized="1"
     inkscape:window-y="-8"
     inkscape:window-x="-8"
     inkscape:window-height="1002"
     inkscape:window-width="1920"
     showgrid="false"
     inkscape:document-rotation="0"
     inkscape:current-layer="layer1"
     inkscape:document-units="mm"
     inkscape:cy="560"
     inkscape:cx="400"
     inkscape:zoom="0.35"
     inkscape:pageshadow="2"
     inkscape:pageopacity="0.0"
     borderopacity="1.0"
     bordercolor="#666666"
     pagecolor="#ffffff"
     id="base" />
  <metadata
     id="metadata958">
    <rdf:RDF>
      <cc:Work
         rdf:about="">
        <dc:format>image/svg+xml</dc:format>
        <dc:type
           rdf:resource="http://purl.org/dc/dcmitype/StillImage" />
        <dc:title></dc:title>
      </cc:Work>
    </rdf:RDF>
  </metadata>
  <g
     id="layer1"
     inkscape:groupmode="layer"
     inkscape:label="Layer 1">
    <path
       inkscape:export-ydpi="96"
       inkscape:export-xdpi="96"
       id="path977"
       d="m -395.36309,145.89881 9.07143,-3.77976 9.07142,-0.75596 h 9.8274 9.82736 l 11.3393,3.02381 15.875,2.26786 9.07143,-3.02381 12.09524,-0.75595 h 7.55951 l 9.8274,-0.75595 6.80354,-1.51191 13.60715,1.51191 12.8512,-3.02381 h 8.31547 l 6.80358,0.75595 7.55952,-2.26786 h 2.26786 4.53571 3.02381 l 5.29167,-6.80357 6.80357,-5.29167 1.5119,-1.5119 v -3.77976 l 2.26786,-4.53572 v -3.77976 -2.26786 l -1.5119,-6.04762 -4.53572,-9.071423 -3.02381,-4.535715 -0.75595,-3.779761 5.29167,-9.827381 9.82738,-16.630952 7.55952,-14.363096 10.58333,-12.095237 6.80358,-4.535715 7.55952,-1.511905 5.29167,-3.023809 5.29166,0.755952 3.02381,2.267857 h 8.31548 l 10.58333,2.267857 9.07143,2.267858 8.31548,6.803572 6.80357,9.827379 6.04762,12.851191 4.53571,9.07143 5.291666,10.583333 0.755954,2.267855 -4.53571,5.291666 -2.26786,6.803573 -1.51191,9.827381 v 8.31548 l 2.26786,9.07142 3.77976,3.02381 6.047621,1.51191 4.535715,4.53571 1.511903,6.04762 4.535715,-1.5119 h 5.291667 l 6.047618,0.75595 5.291667,0.75595 h 6.047621 8.315475 l 11.339285,-1.5119 h 5.291667 l 5.291666,0.75595 h 7.559524 l 7.559524,-0.75595 h 10.583333 8.3154761 l 13.6071429,0.75595 6.803571,3.02381 h 5.291668 l 15.119045,-0.75595 3.779764,-2.26786 2.267857,-3.77976 h 4.535713 l 2.267857,4.53571 12.095239,-0.75595 16.630952,-0.75595 10.583333,-1.51191 h 4.535715 7.559526 3.77976 l 6.04762,-0.75595 9.07143,1.5119 h 3.77976 6.04762 9.07143 l 10.58333,-2.26785 4.53571,-3.77976 10.58334,-13.60715 8.31547,-8.31547 2.26786,-3.77977 3.77976,-2.26785 2.26786,-2.26786 3.02381,-6.047619 1.5119,-1.511903 6.80357,-3.779763 6.80358,-9.827382 2.26785,-5.291666 40.06548,-45.357141 6.80357,-3.02381 33.26191,-41.577381 3.77976,-5.291666 36.28571,-40.065477 2.26786,-0.755952 6.04762,3.779762 19.65476,18.142857 21.16667,17.386905 4.53571,3.779762 0.75595,3.779762 1.51191,5.291666 6.80357,3.7797622 3.02381,1.5119048 3.77976,3.7797619 10.58334,10.5833333 10.58333,9.0714288 7.55952,6.047619 13.60715,12.85119 6.80357,6.803572 8.31547,6.047619 22.67857,23.434524 9.07143,7.559523 13.60715,9.827381 3.77976,3.779762 2.26786,3.779762 5.29166,3.023813 9.82738,9.82738 3.77976,4.53571 37.79762,-2.26786 21.16667,-3.77976 h 27.97024 l 1.66319,202.58202 H -396.2702 Z"
       style="fill:#f4e3d7;stroke:#000000;stroke-width:0.264583px;stroke-linecap:butt;stroke-linejoin:miter;stroke-opacity:1" />
  </g>
</svg>
