<?xml version="1.0" encoding="UTF-8" standalone="no"?>
<svg
   xmlns:dc="http://purl.org/dc/elements/1.1/"
   xmlns:cc="http://creativecommons.org/ns#"
   xmlns:rdf="http://www.w3.org/1999/02/22-rdf-syntax-ns#"
   xmlns:svg="http://www.w3.org/2000/svg"
   xmlns="http://www.w3.org/2000/svg"
   xmlns:sodipodi="http://sodipodi.sourceforge.net/DTD/sodipodi-0.dtd"
   xmlns:inkscape="http://www.inkscape.org/namespaces/inkscape"
   sodipodi:docname="fire.svg"
   inkscape:version="1.0 (4035a4fb49, 2020-05-01)"
   id="svg985"
   version="1.1"
   viewBox="0 0 210 297"
   height="297mm"
   width="210mm">
  <defs
     id="defs979">
    <filter
       height="1.0000018"
       y="-9.1398258e-07"
       width="1.0000035"
       x="-1.7465604e-06"
       id="filter1637"
       style="color-interpolation-filters:sRGB"
       inkscape:collect="always">
      <feGaussianBlur
         id="feGaussianBlur1639"
         stdDeviation="1.3471547e-05"
         inkscape:collect="always" />
    </filter>
  </defs>
  <sodipodi:namedview
     inkscape:window-maximized="1"
     inkscape:window-y="-8"
     inkscape:window-x="-8"
     inkscape:window-height="1002"
     inkscape:window-width="1920"
     showgrid="false"
     inkscape:document-rotation="0"
     inkscape:current-layer="layer1"
     inkscape:document-units="mm"
     inkscape:cy="560.19637"
     inkscape:cx="357.49894"
     inkscape:zoom="0.7"
     inkscape:pageshadow="2"
     inkscape:pageopacity="0.0"
     borderopacity="1.0"
     bordercolor="#666666"
     pagecolor="#ffffff"
     id="base" />
  <metadata
     id="metadata982">
    <rdf:RDF>
      <cc:Work
         rdf:about="">
        <dc:format>image/svg+xml</dc:format>
        <dc:type
           rdf:resource="http://purl.org/dc/dcmitype/StillImage" />
        <dc:title></dc:title>
      </cc:Work>
    </rdf:RDF>
  </metadata>
  <g
     id="layer1"
     inkscape:groupmode="layer"
     inkscape:label="Layer 1">
    <path
       inkscape:export-ydpi="96"
       inkscape:export-xdpi="96"
       id="path1013"
       d="m 85.195836,244.28312 4.535715,0.88376 7.559524,-42.42044 H 80.660121 Z"
       style="fill:#784421;stroke:#000000;stroke-width:0.286076px;stroke-linecap:butt;stroke-linejoin:miter;stroke-opacity:1" />
    <path
       inkscape:export-ydpi="96"
       inkscape:export-xdpi="96"
       sodipodi:nodetypes="csccscscscscscscsccc"
       id="path1022"
       d="m 152.26451,165.87878 c 10.58334,-17.38691 15.11905,-40.06548 6.80357,-53.67262 -8.31547,-13.607105 -23.43452,-25.702344 -23.43452,-25.702344 l 0.75595,13.607144 c 0,0 2.26786,11.33924 -2.26786,18.89877 -4.53571,7.55952 -16.63095,12.85119 -16.63095,12.85119 0,0 13.60714,-15.11905 3.02381,-31.74996 -10.58333,-16.630954 -15.11905,-27.970238 -15.11905,-27.970238 0,0 3.77976,10.583333 -3.0238,22.678569 -6.803588,12.095219 -7.559538,12.095219 -7.559538,12.095219 0,0 -5.291666,-17.386885 -0.75595,-27.214267 4.53571,-9.827379 -6.047622,-21.922618 -6.047622,-21.922618 0,0 -7.559524,23.434524 -20.410715,24.94643 -12.851188,1.511903 -4.535712,26.458305 -4.535712,26.458305 0,0 -11.339287,-18.142829 -31.75,-22.678544 -20.410714,-4.535715 -1.511905,3.77976 -1.511905,3.77976 0,0 15.308036,16.252954 -7.9375,35.718714 -20.4911891,17.15928 -4.724702,38.74256 -4.724702,38.74256 l 4.346726,0.37798 z"
       style="fill:#ff6600;stroke:#000000;stroke-width:0.264583px;stroke-linecap:butt;stroke-linejoin:miter;stroke-opacity:1" />
    <path
       inkscape:export-ydpi="96"
       inkscape:export-xdpi="96"
       style="fill:#ff9955;stroke:none;stroke-width:0.201905px;stroke-linecap:butt;stroke-linejoin:miter;stroke-opacity:1"
       d="m 144.55109,163.598 c 8.07619,-13.26803 18.71896,-30.38515 12.37339,-40.76882 -6.34558,-10.38368 -12.78032,-20.36957 -12.78032,-20.36957 l -8.87253,21.156 c 0,0 -7.5298,9.97598 -12.88091,8.75213 -6.55807,-1.49989 -17.79384,2.05827 -17.79384,2.05827 0,0 3.76909,-2.46596 3.44142,-16.85802 -0.3424,-15.03906 2.06968,-22.478155 2.06968,-22.478155 0,0 -5.6201,7.320245 -10.811954,16.550175 -5.19186,9.22994 -9.170512,3.74929 -9.170512,3.74929 0,0 -6.872921,-13.26803 -3.411691,-20.767366 3.46123,-7.499319 -0.835208,-26.178657 -0.835208,-26.178657 0,0 -4.445793,12.969304 -12.740689,23.383463 -6.152019,7.723801 -10.075803,25.29317 -10.075803,25.29317 0,0 -2.52041,-17.08748 -18.180951,-20.140962 -13.874627,-2.70527 -4.346726,0.94494 -4.346726,0.94494 0,0 8.861859,4.822252 -5.46999,25.282492 -11.701334,16.7049 -8.852723,22.57797 -8.852723,22.57797 l 5.1225,17.23678 z"
       id="path1022-3"
       sodipodi:nodetypes="csccscscscscscscsccc" />
    <path
       inkscape:export-ydpi="96"
       inkscape:export-xdpi="96"
       sodipodi:nodetypes="ccscscscscscccc"
       id="path1022-3-8"
       d="m 102.56688,131.01625 c -0.46327,-9.19009 2.03588,-22.42134 2.03588,-22.42134 0,0 -6.202834,13.33567 -10.928674,18.76988 -5.10147,5.86615 -7.534941,4.9359 -7.534941,4.9359 0,0 -6.386995,-8.82052 -5.567727,-14.77833 1.071693,-7.79346 -4.826768,-23.164812 -4.826768,-23.164812 0,0 -0.726438,11.497002 -7.370992,18.907852 -4.928017,5.49636 -3.724398,17.99895 -3.724398,17.99895 0,0 -11.657344,-14.42752 -16.831535,-24.72691 -5.063576,-10.079219 -1.21405,2.94029 -1.21405,2.94029 0,0 4.452876,9.85716 -7.027517,24.41694 -9.373239,11.88743 -4.634542,29.29596 -4.634542,29.29596 l 21.112259,0.73764 c 29.103846,-0.98269 17.873405,-0.0503 34.652157,-0.63653 5.991854,-14.02047 11.810488,-22.28229 11.860848,-32.27549 z"
       style="fill:#ffdd55;stroke:none;stroke-width:0.152439px;stroke-linecap:butt;stroke-linejoin:miter;stroke-opacity:1" />
    <path
       inkscape:export-ydpi="96"
       inkscape:export-xdpi="96"
       id="path1615"
       d="m 112.06994,163.7015 28.15923,0.37798 c 0,0 13.98512,-19.65476 13.98512,-27.97024 0,-8.31548 -8.12649,-22.67857 -8.12649,-22.67857 l -8.50446,19.0878 c 0,0 -5.10268,9.82738 -10.96131,9.07142 -5.85863,-0.75595 -14.55209,22.11161 -14.55209,22.11161 z"
       style="fill:#ffdd55;stroke:none;stroke-width:0.264583px;stroke-linecap:butt;stroke-linejoin:miter;stroke-opacity:1" />
    <path
       inkscape:export-ydpi="96"
       inkscape:export-xdpi="96"
       id="path1619"
       d="m 124.16518,133.27442 c 0,0 -4.53571,4.53571 -6.23661,7.18155 -1.70089,2.64583 -5.48065,8.88244 -6.04761,10.77232 -0.56697,1.88988 -2.83483,7.37053 -3.40179,9.63839 -0.56696,2.26786 -0.94494,2.83482 -0.94494,2.83482 H 95.816966 c 0,0 4.15774,-6.99256 4.913694,-8.88244 0.75595,-1.88988 4.15774,-9.07143 5.10268,-11.1503 0.94494,-2.07887 10.39434,-13.41815 10.39434,-13.41815 z"
       style="fill:#ff6600;stroke:none;stroke-width:0.264583px;stroke-linecap:butt;stroke-linejoin:miter;stroke-opacity:1" />
    <path
       inkscape:export-ydpi="96"
       inkscape:export-xdpi="96"
       id="path1009"
       d="m 119.44047,187.47619 14.3631,56.69643 h -5.29167 l -21.92262,-48.38096 z"
       style="fill:#a05a2c;stroke:#000000;stroke-width:0.264583px;stroke-linecap:butt;stroke-linejoin:miter;stroke-opacity:1" />
    <path
       inkscape:export-ydpi="96"
       inkscape:export-xdpi="96"
       id="path1007"
       d="m 63.499999,192.76786 -12.85119,52.16071 h 6.047618 l 18.142857,-45.35715 z"
       style="fill:#a05a2c;stroke:#000000;stroke-width:0.264583px;stroke-linecap:butt;stroke-linejoin:miter;stroke-opacity:1" />
  </g>
  <g
     inkscape:label="Layer 2"
     id="layer5"
     inkscape:groupmode="layer">
    <path
       inkscape:export-ydpi="96"
       inkscape:export-xdpi="96"
       sodipodi:nodetypes="ssssssss"
       id="path1001"
       d="M 88.573382,210.16469 C 61.83328,210.19419 20.932471,169.77326 18.5234,168.62647 c -2.04253,-0.97232 -7.331094,0.2303 -8.517243,-0.48489 -1.1679752,-0.70422 -3.0751412,-4.4372 -1.3905702,-4.52556 7.9077892,-0.41478 150.8813332,-0.27897 154.3533032,0.64651 1.32279,0.3526 0.22325,2.5962 -1.45202,3.59333 -1.16985,0.69631 -4.28865,-0.12516 -5.50083,0.28572 -1.1176,0.37882 -40.38109,41.99323 -67.442658,42.02311 z"
       style="fill:#ffc059;fill-opacity:1;stroke:#000000;stroke-width:0.234658px;stroke-linecap:butt;stroke-linejoin:miter;stroke-opacity:1" />
    <circle
       inkscape:export-ydpi="96"
       inkscape:export-xdpi="96"
       r="11.90625"
       cy="185.32167"
       cx="89.013397"
       id="path1642"
       style="fill:#b0003f;fill-opacity:1;stroke:#d2003f;stroke-width:0.653677;stroke-linecap:round;stroke-miterlimit:4;stroke-dasharray:none;stroke-opacity:1" />
  </g>
  <g
     inkscape:label="Layer 3"
     id="layer6"
     inkscape:groupmode="layer">
    <path
       inkscape:export-ydpi="96"
       inkscape:export-xdpi="96"
       transform="matrix(0.54034592,0,0,0.54034592,40.740015,89.30855)"
       sodipodi:nodetypes="ccsscscscssscsssccsssssscc"
       id="path1635"
       d="m 90.517042,188.69171 v 3.59078 c 0,0 0.94494,1.5119 2.07887,1.13393 1.13393,-0.37798 2.07887,0.56696 3.77976,-1.13393 1.7009,-1.7009 1.7009,-4.72471 1.7009,-4.72471 0,0 0.18899,-2.26785 -0.94494,-3.59077 -1.13393,-1.32292 -4.53572,-5.66964 -4.53572,-5.66964 0,0 -2.64583,-4.83809 -2.26785,-6.16101 0.37797,-1.32292 0.37797,-2.15447 0.37797,-2.15447 0,0 0.37798,0 1.32292,-1.32291 0.94494,-1.32292 2.64583,-1.51191 1.88988,-3.02381 -0.75595,-1.51191 -3.2128,-1.51191 -3.02381,-2.64584 0.18899,-1.13393 -0.18899,-3.40178 -0.18899,-3.40178 0,0 -0.18899,0 0.56697,-0.94494 0.75595,-0.94494 -3.02381,3.40178 -3.02381,4.7247 0,1.32292 -1.32292,2.83482 0,3.96875 1.32291,1.13393 2.45684,2.64583 2.45684,2.64583 l -0.37797,2.15447 c 0,0 -3.40179,2.19226 -4.15774,3.1372 -0.75596,0.94494 -4.15774,3.77976 -4.53572,4.53571 -0.37797,0.75596 -1.88988,2.45685 -1.88988,3.96875 0,1.51191 -0.85044,3.40179 -0.47247,4.72471 0.37798,1.32291 2.55134,2.83482 3.87426,3.59077 1.32291,0.75595 3.96875,2.45684 5.10268,1.5119 1.13392,-0.94494 2.07887,-1.88988 2.07887,-1.88988 z"
       style="fill:none;stroke:#000000;stroke-width:1.46897;stroke-linecap:butt;stroke-linejoin:miter;stroke-miterlimit:4;stroke-dasharray:none;stroke-opacity:1;filter:url(#filter1637)" />
  </g>
</svg>
